<svg width="1024" height="1024" viewBox="0 0 1024 1024" fill="none" xmlns="http://www.w3.org/2000/svg">
<rect width="1024" height="1024" fill="black"/>
<path fill-rule="evenodd" clip-rule="evenodd" d="M694.191 579H694.434V579.242L694.191 579Z" fill="#1E1E1E"/>
<path d="M511.27 275.304C511.27 280.343 507.184 284.428 502.145 284.429H495.686L496.336 285.471L512.564 311.457L539.691 354.897C543.488 360.978 543.375 368.718 539.4 374.684L514.225 412.473L460.686 492.84C457.659 497.189 456.147 502.202 456.147 507.875C456.013 511.756 456.731 515.447 458.302 518.949L458.627 519.647L476.761 547.492L476.823 547.587L519.929 613.778C523.297 618.95 529.051 622.069 535.223 622.069H663.745C673.43 622.069 682.718 625.918 689.564 632.768L722.861 666.085L808.922 752.196C821.888 765.17 821.882 786.198 808.908 799.164C795.935 812.13 774.906 812.124 761.939 799.15L664.243 701.397C662.532 699.685 660.209 698.724 657.788 698.724H465.074C455.491 699.193 446.083 697.607 436.856 693.969C423.24 688.484 411.892 679.028 402.814 665.601L234.256 412.956L209.068 375.201C205.088 369.234 204.971 361.489 208.771 355.405L235.889 311.979L252.44 285.471L253.092 284.429H245.72C240.68 284.429 236.595 280.344 236.595 275.304V250.415H511.27V275.304ZM679.091 622.291L678.87 622.07H679.091V622.291ZM312.51 285.471L270.307 354.225C268.447 357.254 268.516 361.088 270.483 364.049L314.59 430.431C321.02 440.076 329.437 447.451 339.838 452.558C350.05 457.474 360.83 459.934 372.178 459.934C384.47 459.934 396.48 457.097 408.204 451.423C419.741 445.56 429.481 436.672 437.423 424.758L478.006 363.565C479.969 360.605 480.037 356.775 478.179 353.748L436.269 285.471L435.628 284.429H313.149L312.51 285.471ZM373.434 306.421C384.402 306.421 394.425 309.068 403.503 314.363C412.581 319.659 419.767 326.845 425.063 335.923C430.358 344.811 433.006 354.74 433.006 365.709C433.006 376.867 430.358 386.891 425.063 395.779C419.767 404.668 412.581 411.854 403.503 417.339C394.425 422.634 384.402 425.282 373.434 425.282C362.465 425.282 352.535 422.634 343.647 417.339C334.569 411.854 327.382 404.668 322.087 395.779C316.603 386.891 313.86 376.867 313.86 365.709C313.86 354.74 316.603 344.811 322.087 335.923C327.382 326.845 334.569 319.659 343.647 314.363C352.535 309.068 362.465 306.421 373.434 306.421ZM502.144 195C507.183 195 511.269 199.086 511.269 204.126V226.939H236.594V204.126C236.594 199.086 240.679 195 245.719 195H502.144Z" fill="white"/>
<path d="M590.916 723.1H488.255L541.269 779.376C544.742 783.063 544.548 788.872 540.837 792.319L476.32 852.25C462.573 865.02 461.97 886.582 474.983 900.1C487.85 913.467 509.123 913.853 522.466 900.962L620.155 806.59C634.543 792.691 635.062 769.8 621.32 755.263L590.916 723.1Z" fill="white"/>
</svg>
