<?xml version="1.0" standalone="no"?>
<!DOCTYPE svg PUBLIC "-//W3C//DTD SVG 20010904//EN"
 "http://www.w3.org/TR/2001/REC-SVG-20010904/DTD/svg10.dtd">
<svg version="1.0" xmlns="http://www.w3.org/2000/svg"
 width="544.000000pt" height="544.000000pt" viewBox="0 0 544.000000 544.000000"
 preserveAspectRatio="xMidYMid meet">
<metadata>
Created by potrace 1.14, written by Peter Selinger 2001-2017
</metadata>
<g transform="translate(0.000000,544.000000) scale(0.100000,-0.100000)"
fill="#000000" stroke="none">
<path d="M4568 5270 c-66 -11 -143 -37 -210 -71 -32 -16 -332 -184 -667 -373
-400 -227 -623 -348 -649 -352 -50 -8 -104 9 -147 48 -40 35 -52 66 -64 178
-17 148 -55 234 -150 333 -65 68 -141 117 -231 148 -92 31 -229 32 -325 2 -49
-16 -327 -167 -920 -503 -467 -264 -881 -502 -919 -527 -119 -81 -222 -229
-262 -378 -8 -33 -18 -112 -20 -175 -3 -63 -1 -736 4 -1495 l9 -1380 22 -65
c69 -196 189 -335 366 -421 183 -89 359 -100 545 -35 36 12 356 187 713 389
415 235 661 369 686 373 69 11 153 -32 186 -97 8 -15 19 -70 25 -121 16 -154
59 -249 160 -350 159 -159 386 -207 590 -125 81 33 1755 982 1820 1032 108 83
208 238 241 375 12 45 13 314 10 1525 -3 1387 -5 1474 -22 1543 -54 215 -223
402 -435 481 -118 45 -245 59 -356 41z m-2106 -1289 c19 -13 46 -40 59 -59 23
-34 24 -45 29 -231 l5 -196 33 -67 c56 -114 158 -186 289 -204 102 -13 132 1
843 404 689 390 711 401 767 371 55 -29 53 -2 53 -874 0 -876 2 -843 -57 -898
-16 -16 -335 -201 -708 -413 -654 -369 -681 -384 -732 -384 -63 0 -99 13 -136
48 -57 54 -61 72 -67 277 -5 183 -6 192 -34 253 -52 112 -162 190 -293 208
-101 13 -131 -1 -841 -403 -402 -228 -680 -379 -700 -381 -44 -6 -85 13 -105
47 -16 27 -17 96 -17 835 0 879 -2 843 58 899 16 16 335 202 708 413 l679 385
66 -3 c50 -3 75 -9 101 -27z"/>
</g>
</svg>
